<svg width="294" height="90" viewBox="0 0 294 90" fill="none" xmlns="http://www.w3.org/2000/svg">
<path d="M0 37.1273C0 35.6331 1.21124 34.4219 2.70539 34.4219C4.19953 34.4219 5.41078 35.6331 5.41078 37.1273V52.3438C5.41078 53.838 4.19953 55.0492 2.70539 55.0492C1.21124 55.0492 0 53.838 0 52.3438L0 37.1273Z" fill="white"/>
<path d="M10.3062 26.3696C10.3062 24.8754 11.5174 23.6642 13.0115 23.6642C14.5057 23.6642 15.7169 24.8754 15.7169 26.3696V63.1015C15.7169 64.5957 14.5057 65.8069 13.0115 65.8069C11.5174 65.8069 10.3062 64.5957 10.3062 63.1015V26.3696Z" fill="white"/>
<path d="M20.6123 12.7835C20.6123 11.2893 21.8235 10.0781 23.3177 10.0781C24.8118 10.0781 26.0231 11.2893 26.0231 12.7835V76.6876C26.0231 78.1818 24.8118 79.393 23.3177 79.393C21.8235 79.393 20.6123 78.1818 20.6123 76.6876V12.7835Z" fill="white"/>
<path d="M36.3296 12.7835C36.3296 11.2893 35.1183 10.0781 33.6242 10.0781C32.1301 10.0781 30.9188 11.2893 30.9188 12.7835V76.6876C30.9188 78.1818 32.1301 79.393 33.6242 79.393C35.1183 79.393 36.3296 78.1818 36.3296 76.6876V12.7835Z" fill="white"/>
<path d="M46.6357 8.43141C46.6357 6.93727 45.4245 5.72602 43.9304 5.72602C42.4362 5.72602 41.225 6.93727 41.225 8.43141V81.0397C41.225 82.5338 42.4362 83.7451 43.9304 83.7451C45.4245 83.7451 46.6357 82.5338 46.6357 81.0397V8.43141Z" fill="white"/>
<path d="M51.5312 2.70539C51.5312 1.21124 52.7425 0 54.2366 0C55.7308 0 56.942 1.21124 56.942 2.70539V86.7657C56.942 88.2599 55.7308 89.4711 54.2366 89.4711C52.7425 89.4711 51.5312 88.2599 51.5312 86.7657V2.70539Z" fill="white"/>
<path d="M61.8374 8.43141C61.8374 6.93727 63.0486 5.72602 64.5428 5.72602C66.0369 5.72602 67.2482 6.93727 67.2482 8.43141V81.0397C67.2482 82.5338 66.0369 83.7451 64.5428 83.7451C63.0486 83.7451 61.8374 82.5338 61.8374 81.0397V8.43141Z" fill="white"/>
<path d="M72.1436 12.7835C72.1436 11.2893 73.3548 10.0781 74.8489 10.0781C76.3431 10.0781 77.5543 11.2893 77.5543 12.7835V76.6876C77.5543 78.1818 76.3431 79.393 74.8489 79.393C73.3548 79.393 72.1436 78.1818 72.1436 76.6876V12.7835Z" fill="white"/>
<path d="M82.4497 19.9028C82.4497 18.4086 83.6609 17.1974 85.1551 17.1974C86.6492 17.1974 87.8605 18.4086 87.8605 19.9028V69.5683C87.8605 71.0625 86.6492 72.2737 85.1551 72.2737C83.6609 72.2737 82.4497 71.0625 82.4497 69.5683V19.9028Z" fill="white"/>
<path d="M92.7563 26.3696C92.7563 24.8754 93.9676 23.6642 95.4617 23.6642C96.9559 23.6642 98.1671 24.8754 98.1671 26.3696V63.1015C98.1671 64.5957 96.9559 65.8069 95.4617 65.8069C93.9676 65.8069 92.7563 64.5957 92.7563 63.1015V26.3696Z" fill="white"/>
<path d="M103.062 26.3696C103.062 24.8754 104.274 23.6642 105.768 23.6642C107.262 23.6642 108.473 24.8754 108.473 26.3696V63.1015C108.473 64.5957 107.262 65.8069 105.768 65.8069C104.274 65.8069 103.062 64.5957 103.062 63.1015V26.3696Z" fill="white"/>
<path d="M113.369 37.1273C113.369 35.6331 114.58 34.4219 116.074 34.4219C117.568 34.4219 118.779 35.6331 118.779 37.1273V52.3438C118.779 53.838 117.568 55.0492 116.074 55.0492C114.58 55.0492 113.369 53.838 113.369 52.3438V37.1273Z" fill="white"/>
<path d="M123.675 26.3696C123.675 24.8754 124.886 23.6642 126.38 23.6642C127.874 23.6642 129.086 24.8754 129.086 26.3696V63.1015C129.086 64.5957 127.874 65.8069 126.38 65.8069C124.886 65.8069 123.675 64.5957 123.675 63.1015V26.3696Z" fill="white"/>
<path d="M139.392 21.0634C139.392 19.5693 138.181 18.358 136.687 18.358C135.193 18.358 133.981 19.5693 133.981 21.0634V68.4077C133.981 69.9018 135.193 71.1131 136.687 71.1131C138.181 71.1131 139.392 69.9018 139.392 68.4077V21.0634Z" fill="white"/>
<path d="M144.288 12.7835C144.288 11.2893 145.499 10.0781 146.993 10.0781C148.487 10.0781 149.698 11.2893 149.698 12.7835V76.6876C149.698 78.1818 148.487 79.393 146.993 79.393C145.499 79.393 144.288 78.1818 144.288 76.6876V12.7835Z" fill="white"/>
<path d="M154.594 21.0634C154.594 19.5693 155.805 18.358 157.299 18.358C158.793 18.358 160.005 19.5693 160.005 21.0634V68.4077C160.005 69.9018 158.793 71.1131 157.299 71.1131C155.805 71.1131 154.594 69.9018 154.594 68.4077V21.0634Z" fill="white"/>
<path d="M164.9 26.3696C164.9 24.8754 166.111 23.6642 167.605 23.6642C169.099 23.6642 170.311 24.8754 170.311 26.3696V63.1015C170.311 64.5957 169.099 65.8069 167.605 65.8069C166.111 65.8069 164.9 64.5957 164.9 63.1015V26.3696Z" fill="white"/>
<path d="M175.206 37.1273C175.206 35.6331 176.417 34.4219 177.911 34.4219C179.406 34.4219 180.617 35.6331 180.617 37.1273V52.3438C180.617 53.838 179.406 55.0492 177.911 55.0492C176.417 55.0492 175.206 53.838 175.206 52.3438V37.1273Z" fill="white"/>
<path d="M185.512 37.1273C185.512 35.6331 186.723 34.4219 188.218 34.4219C189.712 34.4219 190.923 35.6331 190.923 37.1273V52.3438C190.923 53.838 189.712 55.0492 188.218 55.0492C186.723 55.0492 185.512 53.838 185.512 52.3438V37.1273Z" fill="white"/>
<path d="M195.818 44.2942C195.818 42.8001 197.03 41.5889 198.524 41.5889C200.018 41.5889 201.229 42.8001 201.229 44.2942V45.1769C201.229 46.671 200.018 47.8822 198.524 47.8822C197.03 47.8822 195.818 46.671 195.818 45.1768V44.2942Z" fill="white"/>
<path d="M206.125 26.3696C206.125 24.8754 207.336 23.6642 208.83 23.6642C210.325 23.6642 211.536 24.8754 211.536 26.3696V63.1015C211.536 64.5957 210.325 65.8069 208.83 65.8069C207.336 65.8069 206.125 64.5957 206.125 63.1015V26.3696Z" fill="white"/>
<path d="M221.842 12.7835C221.842 11.2893 220.631 10.0781 219.136 10.0781C217.642 10.0781 216.431 11.2893 216.431 12.7835V76.6876C216.431 78.1818 217.642 79.393 219.136 79.393C220.631 79.393 221.842 78.1818 221.842 76.6876V12.7835Z" fill="white"/>
<path d="M232.148 8.43141C232.148 6.93727 230.937 5.72602 229.443 5.72602C227.948 5.72602 226.737 6.93727 226.737 8.43141V81.0397C226.737 82.5338 227.948 83.7451 229.443 83.7451C230.937 83.7451 232.148 82.5338 232.148 81.0397V8.43141Z" fill="white"/>
<path d="M237.043 2.70539C237.043 1.21124 238.255 0 239.749 0C241.243 0 242.454 1.21124 242.454 2.70539V86.7657C242.454 88.2599 241.243 89.4711 239.749 89.4711C238.255 89.4711 237.043 88.2599 237.043 86.7657V2.70539Z" fill="white"/>
<path d="M247.35 8.43141C247.35 6.93727 248.561 5.72602 250.055 5.72602C251.549 5.72602 252.76 6.93727 252.76 8.43141V81.0397C252.76 82.5338 251.549 83.7451 250.055 83.7451C248.561 83.7451 247.35 82.5338 247.35 81.0397V8.43141Z" fill="white"/>
<path d="M257.656 12.7835C257.656 11.2893 258.867 10.0781 260.362 10.0781C261.856 10.0781 263.067 11.2893 263.067 12.7835V76.6876C263.067 78.1818 261.856 79.393 260.362 79.393C258.867 79.393 257.656 78.1818 257.656 76.6876V12.7835Z" fill="white"/>
<path d="M267.962 21.0634C267.962 19.5693 269.174 18.358 270.668 18.358C272.162 18.358 273.373 19.5693 273.373 21.0634V68.4077C273.373 69.9018 272.162 71.1131 270.668 71.1131C269.174 71.1131 267.962 69.9018 267.962 68.4077V21.0634Z" fill="white"/>
<path d="M278.269 26.3696C278.269 24.8754 279.48 23.6642 280.974 23.6642C282.468 23.6642 283.679 24.8754 283.679 26.3696V63.1015C283.679 64.5957 282.468 65.8069 280.974 65.8069C279.48 65.8069 278.269 64.5957 278.269 63.1015V26.3696Z" fill="white"/>
<path d="M288.575 37.1273C288.575 35.6331 289.786 34.4219 291.28 34.4219C292.774 34.4219 293.985 35.6331 293.985 37.1273V52.3438C293.985 53.838 292.774 55.0492 291.28 55.0492C289.786 55.0492 288.575 53.838 288.575 52.3438V37.1273Z" fill="white"/>
</svg>
